<svg version="1.1" id="Layer_1" xmlns="http://www.w3.org/2000/svg" xmlns:xlink="http://www.w3.org/1999/xlink" x="0px" y="0px"
	 width="100%" viewBox="0 0 1024 1024" enable-background="new 0 0 1024 1024" xml:space="preserve">
<path fill="#000000" opacity="1.000000" stroke="none" 
	d="
M415.899719,199.598099 
	C449.866730,192.444778 488.154999,211.750519 498.154755,251.029984 
	C506.827972,285.098724 488.129578,321.234009 455.311523,333.780273 
	C453.938141,334.305298 452.617950,334.969421 451.393066,336.262085 
	C486.441376,336.262085 521.489685,336.262085 556.538025,336.262085 
	C532.546387,325.886078 516.407227,308.891571 510.223755,283.437012 
	C506.507080,268.136932 508.039459,253.052597 514.569275,238.589111 
	C527.752808,209.387848 555.804626,196.502335 580.654358,198.080002 
	C619.317383,200.534637 640.635925,227.202972 646.119507,255.185745 
	C651.783813,284.090302 637.267822,321.567535 598.631042,336.729401 
	C605.340332,336.729401 612.049744,336.712341 618.759033,336.732880 
	C633.307739,336.777435 643.390320,344.738831 646.722900,358.909058 
	C647.173645,360.825592 647.319946,362.853455 647.321838,364.830017 
	C647.356201,400.322632 647.367065,435.815277 647.337402,471.307892 
	C647.323364,488.135803 635.214478,500.298828 618.352295,500.306946 
	C542.701355,500.343323 467.050385,500.340729 391.399414,500.313751 
	C374.513489,500.307739 362.698853,488.591034 362.672668,471.797485 
	C362.617096,436.138306 362.617706,400.478912 362.671753,364.819733 
	C362.696106,348.739136 374.670929,336.893799 390.883240,336.748627 
	C396.784637,336.695770 402.686890,336.740112 408.972931,336.740112 
	C407.884796,333.772827 405.835266,333.702454 404.283997,332.948944 
	C377.583038,319.979279 362.080322,298.843292 360.922028,269.111603 
	C359.574982,234.533478 384.347717,205.956131 415.899719,199.598099 
M446.640656,254.895569 
	C441.350037,249.117828 434.706451,247.319626 427.141785,248.325165 
	C416.446136,249.746857 408.481293,261.302429 410.534149,272.372498 
	C412.644043,283.749969 424.220184,291.479675 434.935181,289.129364 
	C450.779999,285.653839 456.764221,267.226868 446.640656,254.895569 
M574.095276,248.313232 
	C561.146240,251.486023 554.489502,263.037567 558.543274,275.300842 
	C561.874817,285.379242 573.109314,291.152344 583.982300,288.373199 
	C594.260376,285.746124 600.957336,274.946381 598.744995,264.566528 
	C596.389465,253.514938 587.341980,247.295532 574.095276,248.313232 
z"/>
<path fill="#000000" opacity="1.000000" stroke="none" 
	d="
M747.649780,670.999512 
	C747.649475,650.170532 747.520752,629.839966 747.744202,609.513306 
	C747.796753,604.733459 746.363831,603.046448 741.515320,603.210266 
	C732.194519,603.525024 722.846741,603.547974 713.527771,603.209473 
	C708.501465,603.026855 707.125427,605.068604 707.338684,609.678162 
	C708.447693,633.653870 708.050964,657.650208 708.120178,681.639954 
	C708.121643,682.139832 708.124512,682.639709 708.124084,683.139587 
	C708.116089,692.979797 707.729980,693.373230 698.127136,693.364807 
	C691.795105,693.359253 685.462891,693.387207 679.131104,693.347595 
	C672.694458,693.307373 671.668701,692.280823 671.662170,685.673096 
	C671.637451,660.511658 671.655945,635.350159 671.646545,610.188721 
	C671.643982,603.356323 671.624939,603.356384 664.619995,603.286926 
	C656.517212,603.206543 655.663818,602.370483 655.650574,594.442749 
	C655.642761,589.777039 655.756226,585.108582 655.627563,580.446533 
	C655.515869,576.395630 657.454834,574.818909 661.343567,574.632629 
	C671.647949,574.139038 671.853027,574.059814 671.612122,563.705017 
	C670.881958,532.325745 694.550598,516.373535 721.230347,518.505554 
	C725.221313,518.824463 729.162842,519.122498 733.047119,520.143005 
	C736.928894,521.162903 738.463013,523.583557 738.063965,527.520508 
	C737.410645,533.965820 736.758728,540.415649 736.340393,546.878662 
	C736.113770,550.379517 734.485107,551.711243 731.180725,551.098145 
	C727.387268,550.394226 723.569214,550.213928 719.734375,550.381409 
	C713.158081,550.668640 709.328491,554.156860 708.302612,560.690063 
	C706.109436,574.657410 706.109436,574.659058 720.108826,574.657837 
	C727.607239,574.657166 735.111450,574.473083 742.601807,574.716125 
	C746.627808,574.846863 747.888123,573.282471 747.698914,569.444885 
	C747.354065,562.452942 747.807983,555.534729 749.557983,548.664246 
	C753.878235,531.702576 768.835083,519.317749 786.420227,518.703796 
	C793.060974,518.471924 799.714600,518.359985 806.317322,519.678528 
	C812.863464,520.985840 814.143127,522.466370 813.435974,529.019226 
	C812.812500,534.796143 811.766235,540.553345 811.565674,546.342102 
	C811.394958,551.267822 808.732788,551.831665 805.002869,551.187439 
	C801.208069,550.531921 797.480530,549.904968 793.644653,550.998840 
	C788.314697,552.518616 784.835510,556.027161 784.408081,561.493652 
	C783.229370,576.566467 780.324280,574.548340 795.799927,574.643127 
	C812.102966,574.742981 810.285950,573.251587 810.342896,589.026489 
	C810.351929,591.525879 810.210388,594.032288 810.351013,596.523438 
	C810.619263,601.276367 808.110474,603.208801 803.728882,603.269348 
	C799.064026,603.333801 794.380981,603.540466 789.736877,603.227051 
	C785.307739,602.928101 784.016968,604.590698 784.053467,608.954163 
	C784.261475,633.780701 784.181824,658.609436 784.247192,683.437378 
	C784.271912,692.815063 783.779602,693.370239 774.427673,693.361450 
	C767.595764,693.355042 760.762695,693.273499 753.932373,693.375122 
	C749.479309,693.441345 747.553406,691.373474 747.635193,686.996399 
	C747.731689,681.832397 747.652832,676.665161 747.649780,670.999512 
z"/>
<path fill="#000000" opacity="1.000000" stroke="none" 
	d="
M182.324005,661.679688 
	C195.943298,665.632874 208.476105,662.735535 220.528091,657.354919 
	C224.872345,655.415344 226.701508,655.941956 228.017670,660.494751 
	C230.051346,667.529419 231.522720,674.672058 233.034241,681.819702 
	C233.673203,684.841187 231.815002,686.029358 229.714386,687.214661 
	C221.182007,692.029297 211.894455,694.710266 202.308578,696.056030 
	C184.975220,698.489380 168.150467,696.505432 152.186020,688.920959 
	C127.984489,677.423218 114.362793,657.783997 109.921547,631.921265 
	C106.444923,611.675842 108.018394,591.548523 117.931725,573.116211 
	C131.542023,547.809814 153.280502,534.112610 181.686935,530.603760 
	C197.799240,528.613525 213.070709,531.719971 228.072464,537.321655 
	C232.265961,538.887573 233.145538,541.434692 232.164536,545.406860 
	C230.366150,552.688416 228.095352,559.804260 225.473389,566.832520 
	C224.212341,570.212830 222.576035,570.494629 219.426270,569.175232 
	C207.542252,564.197083 195.216339,561.758423 182.428543,564.869263 
	C162.974533,569.601868 153.250458,583.301575 148.898605,601.880859 
	C144.115005,622.303528 151.338989,642.905640 167.615952,654.653137 
	C171.975174,657.799377 176.753357,660.112488 182.324005,661.679688 
z"/>
<path fill="#000000" opacity="1.000000" stroke="none" 
	d="
M822.791992,728.178467 
	C823.416199,724.132935 824.205811,720.551636 824.518982,716.929016 
	C824.829468,713.337708 826.813049,712.470093 829.915833,712.758362 
	C830.744263,712.835449 831.578735,712.851135 832.411011,712.881653 
	C849.525330,713.508301 858.476562,701.182983 852.528748,684.884033 
	C847.795532,671.913574 842.746826,659.058228 837.827087,646.156006 
	C829.707886,624.862915 821.569580,603.577209 813.462097,582.279663 
	C811.202698,576.344543 812.306519,574.720703 818.641174,574.675049 
	C825.636719,574.624634 832.651306,574.972229 839.622620,574.558044 
	C844.901794,574.244446 847.587463,576.466370 849.228149,581.196167 
	C854.513916,596.434387 859.956665,611.618408 865.382202,626.807861 
	C867.815430,633.619690 870.351440,640.394836 872.911194,647.378784 
	C875.826355,645.640564 875.864624,643.085571 876.554260,640.985107 
	C882.881287,621.715759 889.088501,602.407104 895.376648,583.124939 
	C897.760803,575.814148 899.359070,574.677429 906.832764,574.658875 
	C913.995117,574.641052 921.158020,574.612793 928.319946,574.674927 
	C933.922791,574.723450 935.488708,576.814758 933.794189,582.224060 
	C932.502747,586.346802 930.885803,590.368042 929.399292,594.429138 
	C916.422241,629.882629 903.481445,665.349548 890.442017,700.780090 
	C885.538025,714.105225 878.497070,726.024231 867.091125,734.961182 
	C855.594055,743.969543 842.467468,746.095764 828.434875,744.090637 
	C822.604675,743.257568 821.221619,740.936035 822.094971,735.066040 
	C822.412231,732.933655 822.536316,730.772522 822.791992,728.178467 
z"/>
<path fill="#000000" opacity="1.000000" stroke="none" 
	d="
M527.965454,643.434937 
	C506.148773,643.239319 484.831177,644.506836 463.509064,643.643188 
	C459.648804,643.486877 458.911285,645.193237 459.818542,648.600708 
	C462.857605,660.014526 472.570984,666.993652 486.121674,667.677612 
	C499.094452,668.332275 511.178131,665.154968 522.814941,659.766785 
	C524.310425,659.074280 525.684814,658.045349 527.977112,658.162659 
	C531.736328,665.760681 533.407471,674.198059 535.166443,682.596130 
	C535.526184,684.313904 534.357117,685.466309 532.905029,686.101013 
	C504.094452,698.695068 475.181366,702.205627 446.802338,685.367188 
	C433.381348,677.403870 426.837891,664.238953 423.970551,649.298889 
	C421.382172,635.812073 422.386841,622.491028 427.059845,609.495605 
	C435.071777,587.214600 457.066101,571.981018 480.764313,571.535461 
	C495.816345,571.252441 509.519592,574.353943 521.237122,584.153748 
	C533.325867,594.264099 538.647339,607.802429 540.256226,623.032227 
	C540.741211,627.622559 541.582703,632.166260 540.886597,636.932678 
	C540.152161,641.961731 537.908142,644.020996 532.956177,643.457397 
	C531.475952,643.288940 529.959961,643.433716 527.965454,643.434937 
M468.906189,603.327271 
	C464.463074,607.059875 461.368622,611.599487 459.925629,617.317932 
	C459.129303,620.473633 460.089050,621.654419 463.225861,621.641541 
	C475.684570,621.590332 488.143524,621.597778 500.602386,621.593201 
	C504.607208,621.591675 505.672791,619.906921 504.795898,615.894104 
	C501.412598,600.411438 484.754547,594.191406 468.906189,603.327271 
z"/>
<path fill="#000000" opacity="1.000000" stroke="none" 
	d="
M376.664307,673.997559 
	C376.664307,657.503052 376.678894,641.508118 376.646576,625.513245 
	C376.642578,623.524963 376.451874,621.530701 376.242462,619.550293 
	C374.661011,604.595581 363.513092,601.007385 351.897797,602.568298 
	C341.080750,604.022034 335.334625,611.097290 335.328583,622.159363 
	C335.316956,643.485901 335.353668,664.812500 335.338409,686.139038 
	C335.333923,692.411682 334.407745,693.316528 328.030853,693.350769 
	C320.700104,693.390198 313.367493,693.261658 306.038513,693.380371 
	C301.719818,693.450256 299.582916,691.821411 299.591858,687.245544 
	C299.661469,651.756958 299.670959,616.268066 299.586121,580.779602 
	C299.575165,576.201172 301.575134,574.522827 305.943604,574.625183 
	C312.104889,574.769531 318.272186,574.656494 324.436890,574.658630 
	C333.417725,574.661743 333.417725,574.663757 335.986023,582.933533 
	C339.410278,581.974365 342.017365,579.555664 344.988678,577.859375 
	C362.003601,568.145813 384.778168,569.361450 398.060486,580.828918 
	C407.623138,589.084961 411.973602,600.020447 412.191833,612.206177 
	C412.636322,637.023682 412.272614,661.854858 412.370697,686.679932 
	C412.388885,691.282593 410.658966,693.467529 405.921936,693.387939 
	C398.259918,693.259033 390.592987,693.279175 382.930328,693.389832 
	C378.450348,693.454529 376.562622,691.334045 376.648682,686.992493 
	C376.731201,682.828857 376.665253,678.662354 376.664307,673.997559 
z"/>
<path fill="#000000" opacity="1.000000" stroke="none" 
	d="
M737.343689,451.999817 
	C737.341797,457.660034 737.393005,462.821045 737.324585,467.980469 
	C737.196411,477.648468 729.877625,481.940491 721.260437,477.164001 
	C710.493042,471.195587 699.890564,464.929199 689.231995,458.765228 
	C680.157837,453.517487 671.186096,448.085785 662.009460,443.024811 
	C657.258667,440.404724 654.929749,436.737915 654.939941,431.397247 
	C654.963440,419.079407 654.937378,406.761475 654.950867,394.443604 
	C654.955627,390.074463 656.784973,387.012909 660.809509,384.860168 
	C680.173401,374.502228 699.403564,363.894623 718.749146,353.502167 
	C730.031494,347.441254 737.330261,351.860413 737.338684,364.607208 
	C737.357788,393.571442 737.343506,422.535645 737.343689,451.999817 
z"/>
<path fill="#000000" opacity="1.000000" stroke="none" 
	d="
M557.654907,691.962036 
	C557.643616,659.643677 557.651794,627.818909 557.601807,595.994263 
	C557.593933,591.003845 557.198425,586.013550 557.209229,581.023682 
	C557.218811,576.609253 559.325134,574.434998 564.075623,574.593750 
	C571.731812,574.849548 579.403076,574.726624 587.066895,574.650085 
	C591.463196,574.606262 593.379944,576.575806 593.372925,581.011475 
	C593.309448,621.167114 593.863464,661.333130 593.105835,701.474670 
	C592.697815,723.093750 582.492432,739.077087 560.828003,743.792725 
	C552.723145,745.556885 544.657410,745.498962 536.560730,744.062073 
	C531.997742,743.252380 529.512329,741.142517 530.494934,735.807190 
	C531.634521,729.619873 532.090210,723.299805 532.690247,717.022766 
	C533.013672,713.638672 534.732544,712.314270 537.990234,712.705017 
	C539.311584,712.863403 540.635254,713.005127 541.953918,713.184021 
	C551.581238,714.490173 556.992859,710.129272 557.601990,700.451965 
	C557.769165,697.796021 557.645386,695.121643 557.654907,691.962036 
z"/>
<path fill="#000000" opacity="1.000000" stroke="none" 
	d="
M610.679565,687.652832 
	C610.665588,652.385376 610.658203,617.586670 610.663269,582.787903 
	C610.664307,575.324829 611.294678,574.679626 618.539856,574.660706 
	C625.699341,574.642029 632.859253,574.623962 640.018494,574.673828 
	C645.846069,574.714478 647.246033,575.986755 647.254700,581.639526 
	C647.308777,616.771057 647.276733,651.902771 647.349792,687.034302 
	C647.358948,691.457397 645.477600,693.428040 641.054321,693.374634 
	C633.063477,693.278015 625.069946,693.293762 617.078857,693.383667 
	C613.356262,693.425537 610.932922,692.169067 610.679565,687.652832 
z"/>
<path fill="#000000" opacity="1.000000" stroke="none" 
	d="
M284.299957,582.228882 
	C284.311676,616.826538 284.327942,650.948059 284.328674,685.069641 
	C284.328827,692.617676 283.606201,693.319397 276.016754,693.337219 
	C268.859589,693.354004 261.699707,693.234619 254.546127,693.398071 
	C249.968857,693.502625 247.695801,691.619812 247.697388,686.972046 
	C247.709549,651.518921 247.713425,616.065796 247.666550,580.612732 
	C247.660934,576.361450 249.673569,574.610413 253.791946,574.647278 
	C261.614288,574.717468 269.437958,574.622620 277.260620,574.671570 
	C283.079468,574.708008 283.915771,575.604126 284.299957,582.228882 
z"/>
<path fill="#000000" opacity="1.000000" stroke="none" 
	d="
M320.411743,394.243530 
	C329.687653,393.812347 338.497711,393.453278 347.306152,393.059052 
	C349.813934,392.946838 351.057190,394.124420 351.072968,396.582611 
	C351.099762,400.745575 351.050354,404.909119 351.081421,409.072052 
	C351.100861,411.677704 349.773590,412.524353 347.306305,412.433746 
	C332.341431,411.883911 317.358002,411.675629 302.413086,410.800751 
	C291.951874,410.188354 281.478088,410.265167 271.013092,409.479370 
	C258.413513,408.533264 245.738266,408.608002 233.097809,408.180878 
	C231.109604,408.113739 229.137726,407.620697 227.148300,407.517975 
	C224.083679,407.359802 222.608292,405.923889 222.685608,402.796783 
	C222.767746,399.474762 224.605896,397.933990 227.687805,397.778595 
	C235.828888,397.368164 243.973373,397.013306 252.119400,396.715698 
	C274.727234,395.889618 297.336548,395.103943 320.411743,394.243530 
z"/>
<path fill="#000000" opacity="1.000000" stroke="none" 
	d="
M274.908203,522.724487 
	C286.215912,529.072632 290.087738,540.753723 284.676178,551.241394 
	C279.367279,561.530151 267.024017,565.713440 256.547974,560.774353 
	C246.207550,555.899170 241.691727,543.539001 246.348984,532.859253 
	C250.918121,522.381531 262.636017,518.109131 274.908203,522.724487 
z"/>
<path fill="#000000" opacity="1.000000" stroke="none" 
	d="
M554.565125,545.112000 
	C552.751892,535.972290 557.290527,526.759583 565.377625,522.634460 
	C573.600830,518.439880 584.162292,520.093689 590.266052,526.531616 
	C597.045288,533.682007 598.218445,543.217712 593.383301,551.869873 
	C588.903137,559.886841 579.687866,564.052185 570.846619,561.895996 
	C562.131287,559.770447 556.591858,554.387390 554.565125,545.112000 
z"/>
<path fill="#000000" opacity="1.000000" stroke="none" 
	d="
M642.935547,559.052673 
	C634.903259,564.672241 625.433105,565.067993 618.367798,560.311951 
	C610.857910,555.256836 607.561096,546.996521 609.563232,538.252197 
	C611.667725,529.060181 617.737427,523.689880 627.625488,522.271057 
	C635.198730,521.184387 643.489197,525.299072 647.472717,532.121521 
	C651.989258,539.856812 651.422668,549.210327 645.982361,555.940796 
	C645.150146,556.970337 644.140137,557.856079 642.935547,559.052673 
z"/>
<path fill="#000000" opacity="1.000000" stroke="none" 
	d="
M351.134766,439.074646 
	C351.128510,449.444397 351.122131,449.638458 341.561005,449.324036 
	C313.665741,448.406769 285.776306,447.313629 257.883942,446.307678 
	C254.535172,446.186920 251.976639,445.204376 251.738480,441.307556 
	C251.499588,437.399109 254.146133,436.772888 257.174072,436.334930 
	C266.749603,434.950012 276.414459,435.745697 286.038574,434.992157 
	C299.273071,433.955902 312.596710,434.081055 325.879272,433.625580 
	C332.349396,433.403687 338.828766,433.172821 345.274445,432.608887 
	C349.984802,432.196838 351.699524,434.141815 351.134766,439.074646 
z"/>
<path fill="#000000" opacity="1.000000" stroke="none" 
	d="
M325.397217,369.869751 
	C314.138641,369.314575 303.344269,368.834412 292.550171,368.348053 
	C285.241089,368.018738 277.933502,367.652344 270.622925,367.361511 
	C267.932312,367.254456 266.771179,365.909149 266.682495,363.285309 
	C266.600464,360.857239 267.155548,358.962555 269.870697,358.473633 
	C271.177277,358.238312 272.498352,357.988312 273.819519,357.944122 
	C287.284790,357.493530 300.753693,357.145020 314.216980,356.643677 
	C325.019989,356.241455 335.805420,355.484039 346.629608,355.482941 
	C349.869049,355.482605 351.038116,356.347748 351.188843,359.608124 
	C351.690155,370.453156 351.787537,370.476074 340.834290,370.337250 
	C335.842529,370.273987 330.852417,370.077942 325.397217,369.869751 
z"/>
</svg>